# xmcd
#
# Track frame offsets:
#	150
#	13222
#	26976
#	42102
#	63808
#	83004
#	106721
#	128539
#	145125
#	163581
#	179384
#	200825
#	214552
#	225729
#
# Disc length: 3208 seconds
#
# Revision: 1
# Processed by: cddbd v1.5.1PL0 Copyright (c) Steve Scherf et al.
# Submitted via: audiograbber 1.83.01
#
DISCID=b60c860e
DTITLE=Willy Michl - Bootleg Review Add-on 2004
DYEAR=1900
DGENRE=Bayer-Blues
TTITLE0=Wakan Tanka
TTITLE1=Johnny B. Good
TTITLE2=Bobfahrerlied
TTITLE3=Una Bella Signorina
TTITLE4=Schwabing
TTITLE5=Indianer
TTITLE6=FC Bayern-Lied
TTITLE7=Telephonblues
TTITLE8=Opa's Rap
TTITLE9=Proteintango
TTITLE10=Mann aus Stein
TTITLE11=Isarflimmern
TTITLE12=Wildpferd
TTITLE13=Fliag, Vogel Fliag
EXTD=Viele Alte Aufnahmen
EXTT0=
EXTT1=
EXTT2=
EXTT3=
EXTT4=
EXTT5=
EXTT6=
EXTT7=
EXTT8=
EXTT9=
EXTT10=
EXTT11=
EXTT12=
EXTT13=
PLAYORDER=
